<svg preserveAspectRatio="none" width="100%" height="100%" overflow="visible" style="display: block;" viewBox="0 0 323.01 164" fill="none" xmlns="http://www.w3.org/2000/svg">
<g id="0">
<path id="Vector" d="M0.310121 153.833C-0.0751604 148.55 -0.0268827 133.585 0.0627711 128.612C0.357019 112.284 0.464141 6.39967 4.89579 1.0313C12.8685 -0.675257 30.3359 0.250886 39.2079 0.250886L104.046 0.25947L211.116 0.268054C236.185 -0.16073 261.257 0.216554 286.319 1.4C293.038 1.83736 316.536 3.80982 321.773 8.00333C323.104 10.3016 322.849 12.0338 322.926 15.7642C323.335 35.8485 322.299 149.193 318.65 159.861C318.389 160.23 318.074 160.667 317.704 161.182C301.026 161.765 275.762 161.465 259.709 161.456C188.48 162.039 117.248 161.765 46.0207 160.625C36.7243 160.462 8.57206 158.206 0.310121 153.833Z" fill="var(--fill-0, #FCFBFA)"/>
<path id="Vector_2" d="M0.310121 154.914C-0.0751604 149.594 -0.0268827 134.524 0.0627711 129.515C0.357019 113.073 0.464141 6.44465 4.89579 1.03855C12.8685 -0.680003 30.3359 0.252649 39.2079 0.252649L104.046 0.261294L211.116 0.269938C236.185 -0.161859 261.257 0.218076 286.319 1.40984C293.038 1.85027 316.536 3.8366 321.773 8.05958C323.104 10.374 322.849 12.1184 322.926 15.875C323.335 36.1004 322.299 150.242 318.65 160.985L318.2 158.377C320.391 124.619 320.332 86.3789 320.592 51.9387C320.526 37.439 320.534 22.9306 320.615 8.43086C299.811 4.08698 272.158 4.30296 251.014 4.30296L169.259 4.38065L60.2903 4.37201C43.3246 4.36337 20.9296 3.11978 4.28615 4.57062C2.02642 52.0251 2.20618 106.475 2.12343 154.188C12.8239 156.304 24.1074 156.719 34.8852 157.349C40.9817 157.712 48.0445 157.228 54.0334 158.282C51.4587 158.843 47.5586 158.29 45.9085 159.223L46.0207 161.753C36.7243 161.589 8.57206 159.318 0.310121 154.914Z" fill="var(--fill-0, #020202)"/>
<path id="Vector_3" d="M53.9881 159.793C62.6374 159.13 73.6702 159.824 82.5509 159.84L140.803 159.848L318.483 159.879L318.934 162.26C318.672 162.599 318.357 163.002 317.987 163.475C301.288 164.011 275.992 163.735 259.92 163.727C188.601 164.263 117.282 164.011 45.9654 162.962L45.8531 160.652C47.5053 159.801 51.4103 160.305 53.9881 159.793Z" fill="var(--fill-0, #020202)"/>
</g>
</svg>
