<svg preserveAspectRatio="none" width="100%" height="100%" overflow="visible" style="display: block;" viewBox="0 0 347.716 597" fill="none" xmlns="http://www.w3.org/2000/svg">
<path id="Vector" d="M17.8083 2.3689C33.9499 -2.25153 54.3887 1.30501 70.8624 1.33825L168.826 1.30538L276.322 1.27211C294.927 1.30535 313.554 0.740165 332.15 2.0033C342.398 2.40219 346.892 98.9991 347.189 155.408C347.791 269.423 347.978 389.055 347.209 503.037C346.846 557.02 337.986 583.911 330.875 593.983C325.924 597.706 318.287 596.576 313.173 596.576L284.942 596.376H192.62L80.5166 596.476L44.5873 596.709C37.6531 596.709 30.2712 598.039 23.321 595.014C14.9119 592.82 1.2254 542.261 0.705027 479.137C-0.330713 353.488 -0.0687724 217.468 0.494674 91.3205C0.730571 38.5013 10.777 10.9117 17.8083 2.3689Z" fill="var(--fill-0, #F7F5EF)"/>
</svg>
