<svg preserveAspectRatio="none" width="100%" height="100%" overflow="visible" style="display: block;" viewBox="0 0 323.01 109" fill="none" xmlns="http://www.w3.org/2000/svg">
<g id="0">
<path id="Vector" d="M20.4002 0.332117C38.7664 -0.364363 59.6602 0.250853 78.1673 0.250853L190.021 0.245043L267.264 0.239233C280.48 0.239233 293.694 0.163821 306.906 0.425001C317.744 0.639749 322.176 19.4621 322.666 30.4897C323.489 47.3097 322.518 64.7275 322.95 81.4836C323.402 98.9595 316.628 106.847 303.213 108.432C286.132 109.534 263.747 108.693 246.071 108.693L137.954 108.687L61.8005 108.681C50.6909 108.681 39.5804 108.751 28.4712 108.704C21.1488 108.658 13.3005 106.464 7.55396 100.498C3.50025 96.3129 0.554689 90.5321 0.319891 83.7994C-0.313602 65.6503 0.209857 47.391 0.0933787 29.2186C0.318048 25.3938 -0.204031 20.6171 0.469516 16.9083C2.69733 4.63865 12.4092 1.28397 20.4002 0.332117Z" fill="var(--fill-0, #020202)"/>
<path id="Vector_2" d="M18.4134 1.90198C33.2146 1.10461 51.9563 1.71838 67.062 1.72411L156.89 1.71844L255.461 1.7127C272.521 1.71844 289.6 1.6209 306.653 1.83888C316.05 1.90772 320.17 18.578 320.443 28.3128C320.994 47.9889 321.166 68.6345 320.461 88.3049C320.128 97.621 312.004 102.262 305.483 104C300.943 104.642 293.941 104.447 289.251 104.447L263.364 104.413H178.709L75.9145 104.43L42.9687 104.47C36.6104 104.47 29.8414 104.7 23.4684 104.178C15.7576 103.799 3.20757 95.074 2.73041 84.1804C1.78067 62.4965 2.02086 39.0228 2.53752 17.2528C2.75383 8.13754 11.966 3.37625 18.4134 1.90198Z" fill="var(--fill-0, #FCFBFA)"/>
<path id="ui_frame_treasure_hint_card_rough_default.svg" d="M18.4134 1.90198C33.2146 1.10461 51.9563 1.71838 67.062 1.72411L156.89 1.71844L255.461 1.7127C272.521 1.71844 289.6 1.6209 306.653 1.83888C316.05 1.90772 320.17 18.578 320.443 28.3128C320.994 47.9889 321.166 68.6345 320.461 88.3049C320.128 97.621 312.004 102.262 305.483 104C300.943 104.642 293.941 104.447 289.251 104.447L263.364 104.413H178.709L75.9145 104.43L42.9687 104.47C36.6104 104.47 29.8414 104.7 23.4684 104.178C15.7576 103.799 3.20757 95.074 2.73041 84.1804C1.78067 62.4965 2.02086 39.0228 2.53752 17.2528C2.75383 8.13754 11.966 3.37625 18.4134 1.90198Z" fill="var(--fill-0, #FCFBFA)"/>
</g>
</svg>
