<svg preserveAspectRatio="none" width="100%" height="100%" overflow="visible" style="display: block;" viewBox="0 0 371.681 68.1408" fill="none" xmlns="http://www.w3.org/2000/svg">
<path id="Vector" d="M71.3644 0.166154C77.2262 -0.550155 83.7321 1.29119 89.1986 1.13298C104.266 0.697924 119.319 0.675924 134.392 0.719869C140.882 0.737447 147.293 0.27603 153.64 0.289214L208.743 0.96159C217.256 1.02311 226.041 0.54409 234.635 0.667137C242.269 0.464988 250.058 1.15496 257.674 0.970387C287.557 0.254079 317.577 0.750646 347.479 0.790197C353.376 0.794591 359.42 1.57681 365.277 0.728667C365.542 3.02701 365.775 5.32533 365.977 7.63246C367.984 7.6808 369.423 7.54017 371.399 7.3556C372.28 17.6827 370.816 28.2824 370.809 38.3722C370.803 48.3786 371.336 57.3522 370.949 67.5519C369.066 68.611 308.1 67.5124 302.133 67.5124C294.96 68.0045 287.697 67.051 280.798 67.4948C270.167 68.176 260.516 67.8068 249.929 67.7629L209.064 67.6749C194.009 67.5211 178.475 67.7849 163.365 67.7761L92.0168 67.6618C87.1411 67.6838 82.2742 68.1276 77.4583 68.1408L30.6871 67.8727C21.6931 67.8244 16.3215 67.4157 6.79 67.8024L6.75228 61.8742L0.801899 61.8127C0.820232 43.3996 1.2579 24.9689 0.0172191 6.60855C-0.0809538 5.15836 0.250846 2.52165 0.75301 1.18132C5.79451 1.18571 10.7112 1.02749 15.7452 0.891262C34.3181 0.385891 52.7977 1.20326 71.3644 0.166154Z" fill="var(--fill-0, black)"/>
</svg>
