<svg preserveAspectRatio="none" width="100%" height="100%" overflow="visible" style="display: block;" viewBox="0 0 323.01 306.861" fill="none" xmlns="http://www.w3.org/2000/svg">
<path id="Vector" d="M0.310121 293.885C-0.0751604 283.793 -0.0268827 255.205 0.0627711 245.702C0.357019 214.509 0.464141 12.2261 4.89579 1.97022C12.8685 -1.29003 30.3359 0.479298 39.2079 0.479298L104.046 0.495697L211.116 0.512096C236.185 -0.307061 261.257 0.413709 286.319 2.67458C293.038 3.51012 316.536 7.27837 321.773 15.2897C323.104 19.6804 322.849 22.9897 322.926 30.1164C323.335 68.4857 322.299 285.022 318.65 305.402L318.2 300.455C320.391 236.413 320.332 163.868 320.592 98.5324C320.526 71.0251 320.534 43.5014 320.615 15.9941C299.811 7.75337 272.158 8.1631 251.014 8.1631L169.259 8.31049L60.2903 8.29409C43.3246 8.27771 20.9296 5.9185 4.28615 8.67087C2.02642 98.6963 2.20618 201.992 2.12343 292.509C12.8239 296.523 24.1074 297.309 34.8852 298.505C40.9817 299.193 48.0445 298.276 54.0334 300.275C51.4587 301.339 47.5586 300.291 45.9085 302.06L46.0207 306.861C36.7243 306.549 8.57206 302.24 0.310121 293.885Z" fill="var(--fill-0, #020202)"/>
</svg>
