<svg preserveAspectRatio="none" width="100%" height="100%" overflow="visible" style="display: block;" viewBox="0 0 323.01 306.861" fill="none" xmlns="http://www.w3.org/2000/svg">
<path id="Vector" d="M0.310121 291.834C-0.0751604 281.812 -0.0268827 253.424 0.0627711 243.988C0.357019 213.012 0.464141 12.1407 4.89579 1.95647C12.8685 -1.28102 30.3359 0.475953 39.2079 0.475953L104.046 0.492238L211.116 0.508522C236.185 -0.304918 261.257 0.410822 286.319 2.65592C293.038 3.48563 316.536 7.22757 321.773 15.183C323.104 19.5431 322.849 22.8292 322.926 29.9062C323.335 68.0077 322.299 283.033 318.65 303.271C318.389 303.971 318.074 304.8 317.704 305.777C301.026 306.883 275.762 306.313 259.709 306.297C188.48 307.403 117.248 306.883 46.0207 304.719C36.7243 304.41 8.57206 300.131 0.310121 291.834Z" fill="var(--fill-0, #FCFBFA)"/>
</svg>
