<svg preserveAspectRatio="none" width="100%" height="100%" overflow="visible" style="display: block;" viewBox="0 0 323.01 318.575" fill="none" xmlns="http://www.w3.org/2000/svg">
<path id="Vector" d="M0.310121 305.104C-0.0751604 294.627 -0.0268827 264.947 0.0627711 255.082C0.357019 222.698 0.464141 12.6928 4.89579 2.04544C12.8685 -1.33927 30.3359 0.497596 39.2079 0.497596L104.046 0.514621L211.116 0.531646C236.185 -0.318784 261.257 0.429503 286.319 2.77669C293.038 3.64413 316.536 7.55623 321.773 15.8734C323.104 20.4317 322.849 23.8673 322.926 31.2661C323.335 71.1002 322.299 295.903 318.65 317.062L318.2 311.925C320.391 245.438 320.332 170.124 320.592 102.294C320.526 73.7366 320.534 45.1621 320.615 16.6047C299.811 8.04936 272.158 8.47473 251.014 8.47473L169.259 8.62775L60.2903 8.61073C43.3246 8.59372 20.9296 6.14445 4.28615 9.00189C2.02642 102.464 2.20618 209.703 2.12343 303.676C12.8239 307.843 24.1074 308.659 34.8852 309.901C40.9817 310.615 48.0445 309.663 54.0334 311.738C51.4587 312.843 47.5586 311.755 45.9085 313.592L46.0207 318.575C36.7243 318.252 8.57206 313.779 0.310121 305.104Z" fill="var(--fill-0, #020202)"/>
</svg>
