<svg preserveAspectRatio="none" width="100%" height="100%" overflow="visible" style="display: block;" viewBox="0 0 371.681 68.1408" fill="none" xmlns="http://www.w3.org/2000/svg">
<path id="Vector" d="M71.5459 1.65527C74.2816 1.32098 77.2146 1.57956 80.2578 1.93066C83.2328 2.2739 86.3708 2.71591 89.2422 2.63281C104.284 2.1985 119.317 2.17579 134.388 2.21973H134.389C137.666 2.2286 140.919 2.11625 144.122 2.00488C147.33 1.89334 150.487 1.78287 153.624 1.78906L208.725 2.46191H208.731C213.015 2.49287 217.364 2.38755 221.691 2.29102C226.028 2.19428 230.348 2.10591 234.613 2.16699H234.675C238.44 2.06729 242.252 2.18716 246.112 2.31152C249.477 2.41992 252.879 2.53151 256.262 2.49512L257.71 2.46973C287.567 1.75403 317.544 2.25044 347.477 2.29004H347.478C350.404 2.29222 353.288 2.48564 356.348 2.57813C358.852 2.65382 361.404 2.65597 363.954 2.39941C364.149 4.18481 364.326 5.9711 364.482 7.7627L364.599 9.09961L365.94 9.13184C367.476 9.16881 368.7 9.09894 370.014 8.9873C370.304 13.5608 370.169 18.2034 369.938 22.8789C369.684 28.0363 369.313 33.2776 369.31 38.3711C369.303 48.0928 369.791 56.5943 369.49 66.2568C369.009 66.2932 368.389 66.3267 367.639 66.3555C365.803 66.4259 363.263 66.4693 360.23 66.4922C354.17 66.538 346.196 66.5008 338.086 66.4297C321.894 66.2877 305.121 66.0127 302.133 66.0127H302.082L302.03 66.0156C298.533 66.2556 294.999 66.1442 291.414 66.0225C287.856 65.9016 284.238 65.7705 280.701 65.998C270.139 66.6748 260.584 66.3069 249.936 66.2627H249.933L209.078 66.1748H209.079C194.024 66.021 178.432 66.2841 163.366 66.2754L92.0195 66.1621H92.0098C89.5343 66.1733 87.0658 66.2912 84.6436 66.4063C82.2118 66.5218 79.8262 66.633 77.459 66.6396L30.6953 66.373C22.288 66.3279 16.9188 65.9601 8.2793 66.2471L8.25195 61.8643L8.24316 60.3896L6.76758 60.374L2.30566 60.3271C2.34405 42.4489 2.72528 24.4382 1.51367 6.50781V6.50684C1.47394 5.91922 1.52095 5.00641 1.64746 4.05078C1.71297 3.556 1.79425 3.08671 1.88477 2.67773C6.5582 2.66019 11.1384 2.5164 15.7861 2.39063C25.045 2.13869 34.2782 2.21696 43.5557 2.22852C52.8212 2.24005 62.1193 2.18517 71.4482 1.66406L71.4971 1.66113L71.5459 1.65527Z" fill="var(--fill-0, #F7F5EF)" stroke="var(--stroke-0, black)" stroke-width="3"/>
</svg>
