<svg preserveAspectRatio="none" width="100%" height="100%" overflow="visible" style="display: block;" viewBox="0 0 323.01 318.575" fill="none" xmlns="http://www.w3.org/2000/svg">
<path id="Vector" d="M0.310121 302.975C-0.0751604 292.571 -0.0268827 263.098 0.0627711 253.302C0.357019 221.144 0.464141 12.6042 4.89579 2.03116C12.8685 -1.32993 30.3359 0.494123 39.2079 0.494123L104.046 0.511029L211.116 0.527936C236.185 -0.316559 261.257 0.426506 286.319 2.75731C293.038 3.61869 316.536 7.50349 321.773 15.7627C323.104 20.2891 322.849 23.7008 322.926 31.0479C323.335 70.604 322.299 293.838 318.65 314.849C318.389 315.575 318.074 316.436 317.704 317.45C301.026 318.598 275.762 318.007 259.709 317.99C188.48 319.139 117.248 318.598 46.0207 316.352C36.7243 316.031 8.57206 311.589 0.310121 302.975Z" fill="var(--fill-0, #FCFBFA)"/>
</svg>
