<svg preserveAspectRatio="none" width="100%" height="100%" overflow="visible" style="display: block;" viewBox="0 0 353 110" fill="none" xmlns="http://www.w3.org/2000/svg">
<g id="0">
<path id="Vector" d="M0.338914 103.18C-0.0821387 99.6372 -0.0293786 89.6 0.0685991 86.2639C0.390167 75.3121 0.507235 4.29246 5.35035 0.691726C14.0633 -0.452916 33.1524 0.168277 42.8482 0.168277L113.707 0.174035L230.717 0.179792C258.114 -0.107806 285.514 0.14525 312.903 0.939022C320.246 1.23237 345.926 2.55537 351.649 5.36808C353.103 6.90961 352.825 8.07147 352.908 10.5736C353.356 24.0447 352.224 100.069 348.236 107.224C347.951 107.471 347.606 107.765 347.202 108.11C328.975 108.501 301.365 108.3 283.822 108.294C205.979 108.685 128.135 108.501 50.2935 107.736C40.134 107.627 9.36794 106.114 0.338914 103.18Z" fill="var(--fill-0, #FCFBFA)"/>
<path id="Vector_2" d="M0.338914 103.906C-0.0821387 100.337 -0.0293786 90.2297 0.0685991 86.8701C0.390167 75.8414 0.507235 4.32263 5.35035 0.696588C14.0633 -0.4561 33.1524 0.16946 42.8482 0.16946L113.707 0.175258L230.717 0.181056C258.114 -0.108564 285.514 0.14627 312.903 0.945622C320.246 1.24103 345.926 2.57333 351.649 5.40581C353.103 6.95818 352.825 8.1282 352.908 10.6479C353.356 24.2137 352.224 100.772 348.236 107.978L347.744 106.228C350.138 83.5858 350.073 57.9371 350.358 34.837C350.285 25.1115 350.294 15.3803 350.383 5.65485C327.647 2.74127 297.427 2.88613 274.319 2.88613L184.974 2.93824L65.8881 2.93245C47.3471 2.92665 22.8728 2.09254 4.6841 3.06566C2.21456 34.8949 2.41102 71.416 2.32058 103.419C14.0146 104.838 26.3457 105.116 38.1242 105.539C44.7867 105.782 52.5053 105.458 59.0502 106.165C56.2365 106.541 51.9742 106.17 50.1709 106.796L50.2935 108.493C40.134 108.383 9.36794 106.86 0.338914 103.906Z" fill="var(--fill-0, #020202)"/>
<path id="Vector_3" d="M59.0007 107.178C68.453 106.734 80.5102 107.199 90.2155 107.21L153.876 107.215L348.053 107.236L348.546 108.833C348.26 109.061 347.915 109.33 347.51 109.648C329.261 110.007 301.617 109.822 284.052 109.817C206.112 110.176 128.171 110.007 50.2332 109.304L50.1104 107.754C51.9159 107.183 56.1835 107.522 59.0007 107.178Z" fill="var(--fill-0, #020202)"/>
</g>
</svg>
