<svg preserveAspectRatio="none" width="100%" height="100%" overflow="visible" style="display: block;" viewBox="0 0 353 109" fill="none" xmlns="http://www.w3.org/2000/svg">
<g id="0">
<path id="Vector" d="M22.3037 0.493164C42.3707 -0.202981 65.194 0.413084 85.4248 0.413086L207.664 0.407227L292.078 0.401367C306.522 0.401367 320.961 0.325773 335.398 0.586914C341.221 0.692496 345.355 5.37213 348.106 11.4688C350.854 17.5564 352.196 24.998 352.463 30.4971V30.498C352.912 38.9023 352.872 47.4574 352.778 56.0088C352.685 64.5586 352.537 73.1062 352.773 81.4883C353.02 90.2053 351.296 96.5011 347.709 100.813C344.236 104.989 338.994 107.332 332.027 108.192L331.348 108.271C312.689 109.372 288.242 108.531 268.918 108.531L150.763 108.525L67.5381 108.52C55.3957 108.52 43.2555 108.589 31.1152 108.543C23.1383 108.497 14.6076 106.309 8.36719 100.38H8.36621C3.96109 96.2187 0.766414 90.4757 0.511719 83.793C-0.180331 65.6504 0.390693 47.407 0.263672 29.2295C0.386941 27.3092 0.305029 25.1474 0.285156 23.0186C0.265224 20.8831 0.307378 18.776 0.671875 16.9395C1.87983 10.8524 5.11308 6.98321 9.12695 4.51367C13.1444 2.04206 17.95 0.968376 22.3037 0.493164Z" fill="var(--fill-0, #F1D1D1)" stroke="var(--stroke-0, #F1D1D1)" stroke-width="0.323728"/>
<path id="Vector_2" d="M20.1934 2.39746C36.3461 1.60401 56.7737 2.21691 73.292 2.22266L171.461 2.21777L279.183 2.21191C297.831 2.21765 316.491 2.11995 335.123 2.33789H335.125C339.949 2.37023 343.519 6.30381 345.947 11.6562C348.362 16.9782 349.552 23.5127 349.699 28.3271C350.302 47.9966 350.488 68.6296 349.719 88.2842C349.543 92.766 347.327 96.1302 344.257 98.6035C341.183 101.079 337.268 102.646 333.756 103.506C328.835 104.138 321.256 103.946 316.111 103.946H316.112L287.821 103.912H195.306L82.9668 103.929H82.9658L46.9619 103.97C39.9912 103.97 32.6284 104.198 25.6885 103.678H25.6738C21.592 103.494 16.1542 101.273 11.665 97.7285C7.1751 94.1835 3.73831 89.3989 3.4873 84.1553C2.4503 62.4902 2.71183 39.0311 3.27637 17.2646C3.38929 12.9122 5.84456 9.5715 9.19434 7.11426C12.5371 4.6622 16.7259 3.12747 20.1934 2.39746Z" fill="var(--fill-0, #FCFBFA)" stroke="var(--stroke-0, #F1D1D1)"/>
</g>
</svg>
