<svg preserveAspectRatio="none" width="100%" height="100%" overflow="visible" style="display: block;" viewBox="0 0 40 46" fill="none" xmlns="http://www.w3.org/2000/svg">
<g id="marker_treasure_box_disabled_40.svg">
<rect x="1" y="1" width="38" height="44" rx="1" fill="var(--fill-0, #C6C6C7)"/>
<rect x="1" y="1" width="38" height="44" rx="1" stroke="var(--stroke-0, #5D5F5F)" stroke-width="2"/>
<path id="Icon" d="M13 30C12.45 30 11.9792 29.8042 11.5875 29.4125C11.1958 29.0208 11 28.55 11 28V16.725C10.7 16.5417 10.4583 16.3042 10.275 16.0125C10.0917 15.7208 10 15.3833 10 15V12C10 11.45 10.1958 10.9792 10.5875 10.5875C10.9792 10.1958 11.45 10 12 10H28C28.55 10 29.0208 10.1958 29.4125 10.5875C29.8042 10.9792 30 11.45 30 12V15C30 15.3833 29.9083 15.7208 29.725 16.0125C29.5417 16.3042 29.3 16.5417 29 16.725V28C29 28.55 28.8042 29.0208 28.4125 29.4125C28.0208 29.8042 27.55 30 27 30H13V30M13 17V28V28V28H27V28V28V17H13V17M12 15H28V15V15V12V12V12H12V12V12V15V15V15V15M17 22H23V20H17V22V22M20 22.5V22.5V22.5V22.5V22.5V22.5V22.5V22.5V22.5V22.5" fill="var(--fill-0, #1A1C1C)"/>
</g>
</svg>
