<svg preserveAspectRatio="none" width="100%" height="100%" overflow="visible" style="display: block;" viewBox="0 0 371.681 65.6351" fill="none" xmlns="http://www.w3.org/2000/svg">
<path id="Vector" d="M71.54 1.64941C74.2826 1.32665 77.2208 1.57689 80.2637 1.91504C83.2411 2.24592 86.3739 2.6707 89.2402 2.59082C104.283 2.17244 119.317 2.15104 134.389 2.19336C137.665 2.2019 140.917 2.09361 144.12 1.98633C147.328 1.8789 150.486 1.77236 153.624 1.77832L208.725 2.42578H208.732C213.015 2.45559 217.362 2.35471 221.69 2.26172C226.027 2.16855 230.347 2.08373 234.614 2.14258H234.673C238.44 2.04648 242.254 2.16146 246.114 2.28125C249.96 2.40059 253.853 2.52458 257.709 2.43457C285.701 1.78826 313.798 2.1676 341.864 2.24902L347.478 2.26074C350.405 2.26284 353.293 2.45007 356.35 2.53906C358.856 2.61204 361.41 2.61312 363.96 2.36523C364.153 4.07028 364.327 5.77639 364.482 7.4873L364.604 8.82031L365.941 8.85156C367.477 8.88719 368.701 8.81875 370.017 8.71094C370.303 13.0944 370.169 17.5455 369.939 22.0322C369.685 26.9966 369.313 32.0502 369.31 36.96C369.303 46.315 369.789 54.4793 369.492 63.7617C369.01 63.7968 368.39 63.8326 367.641 63.8604C365.804 63.9282 363.263 63.9701 360.23 63.9922C354.169 64.0363 346.195 64.0001 338.086 63.9316C321.893 63.7948 305.121 63.5293 302.133 63.5293H302.084L302.034 63.5332C298.533 63.7646 294.996 63.6573 291.412 63.54C288.076 63.4309 284.69 63.3124 281.368 63.4785L280.705 63.5156C270.14 64.1677 260.581 63.8141 249.936 63.7715H249.933L209.077 63.6865H209.078C194.023 63.5384 178.433 63.7916 163.366 63.7832L92.0195 63.6738H92.0098C89.5357 63.6846 87.0689 63.7983 84.6465 63.9092C82.2148 64.0205 79.8278 64.1274 77.459 64.1338L30.6953 63.877L27.502 63.8457C20.8067 63.7508 15.7754 63.5159 8.2793 63.7559L8.25195 59.5889L8.24219 58.1133L6.76758 58.0986L2.30664 58.0547C2.34571 40.8545 2.72436 23.5185 1.51367 6.26074C1.47462 5.70502 1.52045 4.83299 1.64648 3.91602C1.70995 3.45433 1.78732 3.01707 1.87402 2.63477C6.5502 2.61805 11.1326 2.47965 15.7842 2.3584C25.0441 2.1157 34.2787 2.19005 43.5557 2.20117C52.8211 2.21228 62.118 2.16006 71.4453 1.6582L71.4922 1.65527L71.54 1.64941Z" fill="var(--fill-0, #F7F5EF)" stroke="var(--stroke-0, black)" stroke-width="3"/>
</svg>
