<svg preserveAspectRatio="none" width="100%" height="100%" overflow="visible" style="display: block;" viewBox="0 0 356 92" fill="none" xmlns="http://www.w3.org/2000/svg">
<g id="0">
<path id="Vector" d="M22.4837 0.280319C42.7258 -0.307536 65.7535 0.211729 86.1509 0.211729L209.429 0.206825L294.561 0.201922C309.126 0.201922 323.69 0.138271 338.252 0.358716C350.196 0.539972 355.081 16.4267 355.621 25.7344C356.528 39.9311 355.458 54.6324 355.935 68.7752C356.432 83.5254 348.966 90.1829 334.181 91.5203C315.356 92.451 290.684 91.7407 271.203 91.7407L152.044 91.7358L68.1125 91.7309C55.8682 91.7309 43.6229 91.7897 31.3791 91.7505C23.3088 91.7113 14.659 89.8596 8.32548 84.8236C3.85774 81.2916 0.611342 76.4124 0.352563 70.7298C-0.345632 55.4113 0.23129 39.9997 0.102916 24.6616C0.350531 21.4333 -0.22487 17.4016 0.51747 14.2712C2.97282 3.91519 13.6766 1.08372 22.4837 0.280319Z" fill="var(--fill-0, #020202)"/>
<path id="Vector_2" d="M20.2942 1.60677C36.6071 0.933762 57.2629 1.45181 73.9114 1.45665L172.914 1.45186L281.552 1.44701C300.355 1.45186 319.179 1.36953 337.973 1.55352C348.329 1.61162 352.87 15.6819 353.171 23.8984C353.779 40.5058 353.968 57.9315 353.191 74.534C352.824 82.3971 343.871 86.3141 336.684 87.7812C331.68 88.3234 323.962 88.1588 318.794 88.1588L290.263 88.1298H196.961L83.6681 88.1443L47.3574 88.1782C40.3496 88.1782 32.8894 88.3719 25.8654 87.9313C17.3671 87.6117 3.53528 80.2474 3.00939 71.0528C1.96265 52.7508 2.22737 32.9381 2.7968 14.5634C3.0352 6.86982 13.1882 2.85112 20.2942 1.60677Z" fill="var(--fill-0, #FCFBFA)"/>
<path id="Vector_3" d="M20.2942 1.60677C36.6071 0.933762 57.2629 1.45181 73.9114 1.45665L172.914 1.45186L281.552 1.44701C300.355 1.45186 319.179 1.36953 337.973 1.55352C348.329 1.61162 352.87 15.6819 353.171 23.8984C353.779 40.5058 353.968 57.9315 353.191 74.534C352.824 82.3971 343.871 86.3141 336.684 87.7812C331.68 88.3234 323.962 88.1588 318.794 88.1588L290.263 88.1298H196.961L83.6681 88.1443L47.3574 88.1782C40.3496 88.1782 32.8894 88.3719 25.8654 87.9313C17.3671 87.6117 3.53528 80.2474 3.00939 71.0528C1.96265 52.7508 2.22737 32.9381 2.7968 14.5634C3.0352 6.86982 13.1882 2.85112 20.2942 1.60677Z" fill="var(--fill-0, #FCFBFA)"/>
</g>
</svg>
