<svg preserveAspectRatio="none" width="100%" height="100%" overflow="visible" style="display: block;" viewBox="0 0 356 92" fill="none" xmlns="http://www.w3.org/2000/svg">
<g id="0">
<path id="Vector" d="M22.4837 0.280319C42.7258 -0.307536 65.7535 0.211729 86.1509 0.211729L209.429 0.206825L294.561 0.201922C309.126 0.201922 323.69 0.138271 338.252 0.358716C350.196 0.539972 355.081 16.4267 355.621 25.7344C356.528 39.9311 355.458 54.6324 355.935 68.7752C356.432 83.5254 348.966 90.1829 334.181 91.5203C315.356 92.451 290.684 91.7407 271.203 91.7407L152.044 91.7358L68.1125 91.7309C55.8682 91.7309 43.6229 91.7897 31.3791 91.7505C23.3088 91.7113 14.659 89.8596 8.32548 84.8236C3.85774 81.2916 0.611342 76.4124 0.352563 70.7298C-0.345632 55.4113 0.23129 39.9997 0.102916 24.6616C0.350531 21.4333 -0.22487 17.4016 0.51747 14.2712C2.97282 3.91519 13.6766 1.08372 22.4837 0.280319Z" fill="var(--fill-0, #020202)"/>
<path id="Vector_2" d="M20.294 1.6058C36.607 0.932785 57.2628 1.45083 73.9113 1.45567L172.914 1.45088L281.552 1.44604C300.355 1.45088 319.179 1.36855 337.973 1.55254C348.329 1.61064 352.87 15.6809 353.171 23.8975C353.779 40.5049 353.968 57.9305 353.191 74.533C352.824 82.3961 343.87 86.3131 336.683 87.7802C331.68 88.3225 323.962 88.1579 318.794 88.1579L290.263 88.1288H196.961L83.668 88.1433L47.3573 88.1773C40.3495 88.1773 32.8893 88.3709 25.8653 87.9303C17.3669 87.6108 3.53517 80.2464 3.00927 71.0518C1.96254 52.7498 2.22726 32.9371 2.79669 14.5625C3.03509 6.86884 13.1881 2.85014 20.294 1.6058Z" fill="var(--fill-0, #FCFBFA)"/>
<path id="Vector_3" d="M20.294 1.6058C36.607 0.932785 57.2628 1.45083 73.9113 1.45567L172.914 1.45088L281.552 1.44604C300.355 1.45088 319.179 1.36855 337.973 1.55254C348.329 1.61064 352.87 15.6809 353.171 23.8975C353.779 40.5049 353.968 57.9305 353.191 74.533C352.824 82.3961 343.87 86.3131 336.683 87.7802C331.68 88.3225 323.962 88.1579 318.794 88.1579L290.263 88.1288H196.961L83.668 88.1433L47.3573 88.1773C40.3495 88.1773 32.8893 88.3709 25.8653 87.9303C17.3669 87.6108 3.53517 80.2464 3.00927 71.0518C1.96254 52.7498 2.22726 32.9371 2.79669 14.5625C3.03509 6.86884 13.1881 2.85014 20.294 1.6058Z" fill="var(--fill-0, #FCFBFA)"/>
</g>
</svg>
