<svg preserveAspectRatio="none" width="100%" height="100%" overflow="visible" style="display: block;" viewBox="0 0 30.75 30.75" fill="none" xmlns="http://www.w3.org/2000/svg">
<g id="Container">
<path id="Icon" d="M14.55 24C12.15 23.875 10.125 22.95 8.475 21.225C6.825 19.5 6 17.425 6 15C6 12.5 6.875 10.375 8.625 8.625C10.375 6.875 12.5 6 15 6C17.425 6 19.5 6.825 21.225 8.475C22.95 10.125 23.875 12.15 24 14.55L20.85 13.6125C20.525 12.2625 19.825 11.1562 18.75 10.2937C17.675 9.43125 16.425 9 15 9C13.35 9 11.9375 9.5875 10.7625 10.7625C9.5875 11.9375 9 13.35 9 15C9 16.425 9.43125 17.675 10.2937 18.75C11.1562 19.825 12.2625 20.525 13.6125 20.85L14.55 24V24M16.35 29.925C16.125 29.975 15.9 30 15.675 30C15.45 30 15.225 30 15 30C12.925 30 10.975 29.6063 9.15 28.8188C7.325 28.0313 5.7375 26.9625 4.3875 25.6125C3.0375 24.2625 1.96875 22.675 1.18125 20.85C0.39375 19.025 0 17.075 0 15C0 12.925 0.39375 10.975 1.18125 9.15C1.96875 7.325 3.0375 5.7375 4.3875 4.3875C5.7375 3.0375 7.325 1.96875 9.15 1.18125C10.975 0.39375 12.925 0 15 0C17.075 0 19.025 0.39375 20.85 1.18125C22.675 1.96875 24.2625 3.0375 25.6125 4.3875C26.9625 5.7375 28.0313 7.325 28.8188 9.15C29.6063 10.975 30 12.925 30 15C30 15.225 30 15.45 30 15.675C30 15.9 29.975 16.125 29.925 16.35L27 15.45V15C27 11.65 25.8375 8.8125 23.5125 6.4875C21.1875 4.1625 18.35 3 15 3C11.65 3 8.8125 4.1625 6.4875 6.4875C4.1625 8.8125 3 11.65 3 15C3 18.35 4.1625 21.1875 6.4875 23.5125C8.8125 25.8375 11.65 27 15 27C15.075 27 15.15 27 15.225 27C15.3 27 15.375 27 15.45 27L16.35 29.925V29.925M27.7875 30.75L21.375 24.3375L19.5 30L15 15L30 19.5L24.3375 21.375L30.75 27.7875L27.7875 30.75V30.75" fill="var(--fill-0, #FF0000)"/>
</g>
</svg>
