<svg preserveAspectRatio="none" width="100%" height="100%" overflow="visible" style="display: block;" viewBox="0 0 348 546" fill="none" xmlns="http://www.w3.org/2000/svg">
<path id="ui_frame_treasure_hint_popup_rough_default.svg" d="M17.8228 2.16653C33.9776 -2.05919 54.4332 1.19353 70.9203 1.22393L168.964 1.19387L276.548 1.16344C295.168 1.19384 313.81 0.676935 332.422 1.83217C342.678 2.19698 347.175 90.5419 347.473 142.132C348.075 246.407 348.262 355.82 347.493 460.064C347.129 509.435 338.263 534.029 331.145 543.241C326.19 546.646 318.547 545.612 313.429 545.612L285.175 545.43H192.777L80.5824 545.521L44.6237 545.734C37.6839 545.734 30.296 546.95 23.3401 544.183C14.9241 542.177 1.2264 495.937 0.705603 438.206C-0.330984 323.291 -0.0688286 198.89 0.495079 83.5192C0.731168 35.2123 10.7858 9.97955 17.8228 2.16653Z" fill="var(--fill-0, #F7F5EF)"/>
</svg>
