<svg preserveAspectRatio="none" width="100%" height="100%" overflow="visible" style="display: block;" viewBox="0 0 296.379 237" fill="none" xmlns="http://www.w3.org/2000/svg">
<g id="0">
<path id="Vector" d="M0.284553 222.307C-0.0689638 214.673 -0.0246663 193.048 0.0575959 185.86C0.327585 162.264 0.425875 9.24833 4.49216 1.49036C11.8076 -0.975831 27.8348 0.362561 35.9754 0.362561L95.4683 0.374967L193.71 0.387372C216.713 -0.232274 239.717 0.312948 262.713 2.02317C268.879 2.65521 290.439 5.50567 295.244 11.5658C296.466 14.8871 296.232 17.3904 296.302 22.7813C296.678 51.8055 295.727 215.603 292.379 231.02C292.14 231.552 291.85 232.185 291.511 232.928C276.208 233.771 253.027 233.337 238.297 233.325C172.94 234.167 107.582 233.771 42.2265 232.123C33.6965 231.887 7.86533 228.628 0.284553 222.307Z" fill="var(--fill-0, #FCFBFA)"/>
<path id="Vector_2" d="M0.284553 223.87C-0.0689638 216.182 -0.0246663 194.404 0.0575959 187.166C0.327585 163.404 0.425875 9.31332 4.49216 1.50083C11.8076 -0.982689 27.8348 0.36511 35.9754 0.36511L95.4683 0.377602L193.71 0.390094C216.713 -0.233907 239.717 0.315147 262.713 2.03739C268.879 2.67387 290.439 5.54437 295.244 11.6471C296.466 14.9917 296.232 17.5126 296.302 22.9414C296.678 52.1696 295.727 217.118 292.379 232.643L291.966 228.874C293.976 180.09 293.922 124.828 294.161 75.058C294.1 54.104 294.107 33.1376 294.182 12.1836C275.093 5.9062 249.72 6.21832 230.319 6.21832L155.305 6.33059L55.3197 6.3181C39.7527 6.30562 19.204 4.50847 3.93278 6.60512C1.85935 75.1828 2.02429 153.869 1.94836 222.821C11.7667 225.879 22.1199 226.478 32.0091 227.389C37.6029 227.913 44.0835 227.214 49.5786 228.737C47.2162 229.548 43.6376 228.749 42.1235 230.097L42.2265 233.754C33.6965 233.517 7.86533 230.234 0.284553 223.87Z" fill="var(--fill-0, #020202)"/>
<path id="Vector_3" d="M49.5371 230.92C57.4732 229.963 67.5964 230.966 75.745 230.988L129.194 231L292.225 231.045L292.639 234.486C292.399 234.976 292.11 235.557 291.77 236.241C276.448 237.016 253.238 236.617 238.49 236.605C173.052 237.38 107.612 237.016 42.1758 235.5L42.0728 232.162C43.5887 230.931 47.1717 231.66 49.5371 230.92Z" fill="var(--fill-0, #020202)"/>
</g>
</svg>
