<svg preserveAspectRatio="none" width="100%" height="100%" overflow="visible" style="display: block;" viewBox="0 0 291 66" fill="none" xmlns="http://www.w3.org/2000/svg">
<path id="ui_frame_profile_logout_button_white_rough_default.svg" d="M56.0977 1.64453C58.1517 1.33402 60.3753 1.57094 62.7588 1.91113C65.0573 2.23919 67.579 2.67936 69.8896 2.59668C81.6552 2.17641 93.4161 2.15471 105.215 2.19727C107.796 2.20591 110.355 2.09705 112.861 1.98926C115.373 1.88121 117.831 1.7745 120.27 1.78027L163.408 2.43164H163.417C166.783 2.46173 170.199 2.35904 173.584 2.26562C176.98 2.17191 180.35 2.08661 183.676 2.14551L183.714 2.14648L183.752 2.14551C186.677 2.0497 189.642 2.16457 192.667 2.28516C195.298 2.39002 197.976 2.4994 200.644 2.46387L201.785 2.43945C225.15 1.74658 248.599 2.22725 272.049 2.26562H272.05C274.331 2.26773 276.543 2.45302 278.975 2.54395C280.822 2.61302 282.723 2.62037 284.634 2.41211C284.783 4.10514 284.918 5.79912 285.038 7.49805L285.133 8.85156L286.489 8.8916C287.574 8.92392 288.467 8.87384 289.374 8.78711C289.596 13.1997 289.49 17.6746 289.311 22.1719C289.111 27.1744 288.82 32.2403 288.817 37.166C288.812 46.5516 289.194 54.8012 288.96 64.1514C288.641 64.1764 288.257 64.2034 287.81 64.2246C286.383 64.2923 284.401 64.3343 282.029 64.3564C277.29 64.4008 271.051 64.3638 264.703 64.2949C252.04 64.1575 238.89 63.8916 236.549 63.8916H236.485L236.422 63.8965C233.723 64.1255 230.991 64.0195 228.18 63.9014C225.402 63.7847 222.534 63.6554 219.726 63.8789C211.487 64.5319 204.049 64.1767 195.685 64.1338H195.681L163.7 64.0488H163.701C151.914 63.8998 139.68 64.154 127.905 64.1455L72.0459 64.0361H72.0342C70.079 64.047 68.132 64.1621 66.2383 64.2734C64.3327 64.3854 62.4804 64.4926 60.6455 64.499L24.0361 64.2402C17.6077 64.1975 13.3907 63.8529 6.80762 64.1055L6.78613 59.9229L6.7793 58.4492L5.30566 58.4307L2.13086 58.3896C2.16131 41.0804 2.459 23.6622 1.51172 6.31934C1.46054 5.38402 1.58437 3.82983 1.78906 2.63965C5.35123 2.61636 8.84659 2.48053 12.3779 2.3623C19.6144 2.11871 26.8292 2.19388 34.0996 2.20508C41.3554 2.21625 48.6519 2.16339 55.9766 1.65723L56.0371 1.65332L56.0977 1.64453Z" fill="var(--fill-0, white)" stroke="var(--stroke-0, black)" stroke-width="3"/>
</svg>
