<svg preserveAspectRatio="none" width="100%" height="100%" overflow="visible" style="display: block;" viewBox="0 0 20 20" fill="none" xmlns="http://www.w3.org/2000/svg">
<path id="Vector" d="M10 0C15.523 0 20 4.477 20 10C20 15.523 15.523 20 10 20C4.477 20 0 15.523 0 10C0 4.477 4.477 0 10 0ZM10 2C7.87827 2 5.84344 2.84285 4.34315 4.34315C2.84285 5.84344 2 7.87827 2 10C2 12.1217 2.84285 14.1566 4.34315 15.6569C5.84344 17.1571 7.87827 18 10 18C12.1217 18 14.1566 17.1571 15.6569 15.6569C17.1571 14.1566 18 12.1217 18 10C18 7.87827 17.1571 5.84344 15.6569 4.34315C14.1566 2.84285 12.1217 2 10 2ZM10 14C10.2652 14 10.5196 14.1054 10.7071 14.2929C10.8946 14.4804 11 14.7348 11 15C11 15.2652 10.8946 15.5196 10.7071 15.7071C10.5196 15.8946 10.2652 16 10 16C9.73478 16 9.48043 15.8946 9.29289 15.7071C9.10536 15.5196 9 15.2652 9 15C9 14.7348 9.10536 14.4804 9.29289 14.2929C9.48043 14.1054 9.73478 14 10 14ZM10 4.5C10.8423 4.50003 11.6583 4.79335 12.3078 5.3296C12.9573 5.86585 13.3998 6.61154 13.5593 7.43858C13.7188 8.26562 13.5853 9.12239 13.1818 9.86171C12.7783 10.601 12.1299 11.1768 11.348 11.49C11.2322 11.5326 11.1278 11.6014 11.043 11.691C10.999 11.741 10.992 11.805 10.993 11.871L11 12C10.9997 12.2549 10.9021 12.5 10.7272 12.6854C10.5522 12.8707 10.313 12.9822 10.0586 12.9972C9.80416 13.0121 9.55362 12.9293 9.35817 12.7657C9.16271 12.6021 9.0371 12.3701 9.007 12.117L9 12V11.75C9 10.597 9.93 9.905 10.604 9.634C10.8783 9.52446 11.1176 9.34227 11.2962 9.10699C11.4748 8.87171 11.5859 8.59222 11.6176 8.29856C11.6493 8.00489 11.6004 7.70813 11.4762 7.44014C11.352 7.17215 11.1571 6.94307 10.9125 6.77748C10.6679 6.61189 10.3829 6.51606 10.0879 6.50027C9.79295 6.48448 9.49927 6.54934 9.23839 6.68787C8.97752 6.8264 8.75931 7.03338 8.60719 7.28658C8.45508 7.53978 8.37481 7.82962 8.375 8.125C8.375 8.39022 8.26964 8.64457 8.08211 8.83211C7.89457 9.01964 7.64022 9.125 7.375 9.125C7.10978 9.125 6.85543 9.01964 6.66789 8.83211C6.48036 8.64457 6.375 8.39022 6.375 8.125C6.375 7.16359 6.75692 6.24156 7.43674 5.56174C8.11656 4.88192 9.03859 4.5 10 4.5Z" fill="var(--fill-0, black)"/>
</svg>
